<?xml version="1.0" standalone="no"?>
<!DOCTYPE svg PUBLIC "-//W3C//DTD SVG 20010904//EN"
 "http://www.w3.org/TR/2001/REC-SVG-20010904/DTD/svg10.dtd">
<svg version="1.0" xmlns="http://www.w3.org/2000/svg"
 width="863.000000pt" height="1080.000000pt" viewBox="0 0 863.000000 1080.000000"
 preserveAspectRatio="xMidYMid meet">
<metadata>
Created by potrace 1.16, written by Peter Selinger 2001-2019
</metadata>
<g transform="translate(0.000000,1080.000000) scale(0.100000,-0.100000)"
fill="#000000" stroke="none">
<path d="M0 8698 c1 -1434 4 -2097 11 -2085 15 26 29 21 29 -11 0 -35 -9 -45
-27 -31 -11 10 -13 -257 -13 -1622 l0 -1634 33 -19 c31 -18 56 -33 252 -144
79 -45 97 -52 146 -52 31 0 79 -4 108 -10 40 -7 65 -6 113 6 76 20 136 13 195
-21 l43 -26 0 78 c0 43 5 150 10 238 26 407 47 575 81 631 20 33 332 346 384
386 17 12 39 31 50 41 93 85 264 175 392 206 123 29 343 148 343 184 0 7 16
22 34 35 19 13 45 39 58 58 13 18 30 34 39 34 9 0 19 7 22 15 8 19 106 75 123
68 7 -2 17 5 24 16 9 17 20 21 61 21 57 0 117 26 155 69 33 38 77 44 177 25
67 -13 88 -22 127 -55 31 -26 56 -39 76 -39 l29 1 -25 14 c-23 13 -23 14 -5
16 11 1 26 2 34 2 9 -1 10 2 2 10 -6 6 -11 14 -11 18 0 11 97 39 113 33 8 -3
18 -1 22 5 3 6 19 11 35 11 15 0 30 7 34 15 7 20 32 19 41 -2 6 -17 7 -17 19
0 15 20 26 22 26 5 0 -7 12 -19 27 -26 23 -10 29 -10 36 3 12 23 24 18 36 -16
8 -25 14 -29 31 -24 24 8 50 -10 50 -34 0 -32 61 -140 100 -179 22 -21 40 -42
40 -46 0 -11 30 -39 57 -53 22 -11 23 -10 17 13 -5 19 -3 23 10 18 11 -4 16
-1 16 10 0 30 39 57 91 62 l49 5 0 -34 c0 -19 7 -40 15 -47 8 -7 15 -19 15
-26 0 -8 25 -40 56 -71 l56 -57 -22 -18 c-12 -10 -29 -18 -37 -18 -8 0 -11 -4
-8 -10 3 -5 -1 -10 -9 -10 -9 0 -16 -4 -16 -10 0 -5 -10 -10 -22 -10 -21 0
-21 0 -2 15 18 14 17 14 -11 5 -29 -10 -29 -9 -10 6 l20 17 -20 -8 c-44 -16
-58 -18 -51 -7 10 17 -33 75 -50 68 -8 -3 -14 -1 -14 4 0 6 -7 10 -15 10 -8 0
-15 -9 -15 -19 0 -21 -25 -35 -43 -24 -7 4 -3 10 9 15 14 6 12 7 -9 3 -19 -4
-26 -2 -25 7 2 7 -5 12 -14 10 -10 -2 -18 2 -18 8 0 5 -8 10 -17 10 -16 0 -16
-2 -3 -11 11 -8 7 -9 -17 -5 -18 3 -33 4 -33 2 0 -9 92 -47 127 -53 21 -3 49
-14 63 -23 14 -10 41 -21 60 -25 19 -4 41 -17 49 -28 12 -17 15 -18 23 -3 5 9
21 16 36 16 32 0 179 -36 226 -56 14 -5 17 -4 12 4 -5 8 0 12 13 12 12 0 21 5
21 10 0 6 7 10 15 10 8 0 25 5 39 11 l25 12 -27 33 c-15 19 -32 34 -38 34 -6
0 -21 19 -34 42 -30 56 -59 88 -80 88 -12 0 -16 7 -14 22 2 13 -4 38 -14 57
-13 26 -27 37 -62 47 -28 8 -46 10 -48 4 -9 -26 -147 11 -160 43 -2 4 -10 3
-18 -4 -11 -9 -21 -5 -48 17 -34 28 -46 54 -26 54 6 0 10 -5 10 -11 0 -8 5 -7
15 1 14 12 14 15 -1 31 -17 19 -18 29 -14 117 l3 52 38 0 c42 0 50 14 22 36
-16 12 -15 13 11 14 l29 0 -33 23 c-43 28 -47 43 -15 51 27 7 35 26 9 26 -18
0 -84 67 -84 85 0 24 14 24 36 0 13 -14 26 -25 29 -25 17 0 115 -55 115 -64 0
-6 4 -6 11 1 8 8 6 17 -10 34 -11 12 -18 25 -15 28 4 3 9 0 11 -6 3 -7 16 -13
29 -13 17 0 24 -6 24 -20 0 -11 7 -20 15 -20 8 0 15 -4 15 -10 0 -5 -8 -10
-17 -10 -15 0 -16 -2 -3 -10 8 -5 25 -10 36 -10 12 0 27 -7 34 -15 7 -8 23
-15 35 -15 13 0 32 -10 42 -23 18 -22 80 -57 102 -57 6 0 11 -4 11 -10 0 -5
11 -12 25 -16 20 -5 23 -9 15 -19 -13 -16 16 -38 64 -49 26 -6 28 -5 23 14 -7
26 11 34 45 21 34 -13 76 13 57 35 -9 11 -9 18 -1 26 21 21 13 37 -28 60 -22
13 -40 26 -40 29 0 3 12 12 28 19 15 7 22 15 15 17 -22 8 -14 39 12 51 14 6
25 16 25 21 0 5 26 15 58 22 l57 12 -45 8 c-80 15 -91 19 -100 44 -7 18 -17
25 -37 25 -33 0 -111 42 -130 71 -8 10 -25 19 -39 19 -18 0 -24 5 -24 21 0 15
-4 19 -19 14 -11 -3 -22 -1 -26 5 -3 5 -20 10 -38 10 -35 0 -89 44 -80 66 4
10 -4 14 -26 14 -29 0 -31 2 -32 38 -1 20 -1 41 0 45 1 5 -2 6 -7 3 -15 -9
-42 62 -42 109 0 25 3 45 8 45 4 0 7 79 7 176 0 170 -1 176 -24 200 -13 13
-18 24 -12 24 6 0 -16 40 -49 90 -33 49 -60 94 -60 101 0 18 -40 70 -91 120
-48 47 -89 111 -89 139 0 9 -5 21 -11 27 -15 15 -23 139 -12 183 6 22 15 35
25 35 9 0 20 3 23 7 10 9 39 -3 110 -46 33 -20 71 -36 84 -36 14 0 34 -8 45
-19 28 -25 200 -49 221 -31 10 8 30 10 60 6 29 -5 45 -4 45 3 0 6 13 11 29 11
17 0 33 5 36 10 3 6 33 10 66 10 44 0 59 4 59 14 0 8 -3 16 -7 18 -18 8 -76
78 -65 78 7 0 22 -11 34 -25 22 -26 44 -30 111 -18 37 6 39 7 33 36 -4 17 -15
41 -26 52 -11 12 -20 26 -20 33 0 14 -37 35 -50 27 -6 -4 -6 -15 0 -31 6 -14
7 -32 2 -39 -7 -14 -13 -12 -147 51 -17 8 -90 18 -165 24 -74 5 -153 16 -175
24 -22 9 -50 15 -63 16 -12 0 -25 7 -28 15 -4 8 -10 13 -14 10 -5 -3 -20 0
-34 6 l-26 12 33 22 c17 12 56 30 85 41 44 15 51 20 38 30 -9 6 -16 16 -16 23
0 19 -68 12 -112 -13 -24 -13 -58 -27 -77 -31 -31 -7 -33 -6 -28 14 3 13 0 24
-6 27 -16 6 -22 94 -6 94 6 0 8 7 5 16 -3 8 1 27 8 42 21 39 92 112 109 112 8
0 17 8 19 18 7 26 80 81 86 64 11 -33 42 -4 42 39 0 11 7 30 15 43 14 21 14
24 0 29 -8 4 -15 13 -15 22 0 8 -4 15 -10 15 -5 0 -10 8 -10 19 0 26 -25 44
-50 36 -14 -5 -20 -2 -20 9 0 13 12 16 55 16 30 0 56 0 58 -1 1 0 16 5 32 12
17 6 46 18 65 25 27 9 31 14 18 18 -52 17 -53 19 -13 27 55 10 177 67 170 79
-3 6 -32 -3 -65 -20 -41 -21 -74 -30 -107 -30 -48 0 -51 15 -3 22 17 2 25 9
24 21 -2 13 3 16 17 12 12 -4 21 -1 25 9 3 9 13 16 20 16 8 0 32 12 54 26 27
18 45 24 61 19 l23 -7 -22 33 c-15 24 -28 33 -43 31 -16 -1 -20 2 -15 14 3 8
6 27 6 41 0 23 3 24 32 18 18 -4 40 -13 50 -19 19 -12 49 0 50 19 0 22 20 32
75 34 34 1 65 8 74 17 13 11 25 13 57 6 26 -6 44 -6 51 1 11 11 71 -39 71 -59
0 -6 6 -16 13 -22 9 -8 16 -6 25 8 7 12 8 21 2 25 -17 11 -11 37 10 42 11 3
20 12 20 19 0 8 6 14 13 14 13 0 62 -48 62 -61 0 -16 15 -21 16 -6 1 9 2 23 3
30 0 6 7 13 14 13 6 1 17 2 22 3 6 0 10 8 10 16 0 9 15 0 40 -24 23 -22 40
-48 40 -61 0 -13 5 -20 12 -17 7 2 13 18 13 35 0 31 0 31 19 13 23 -24 15 -66
-14 -74 -20 -5 -28 -27 -10 -27 6 0 10 5 10 10 0 16 32 11 45 -7 14 -19 37 -9
28 12 -3 10 2 15 16 15 12 0 21 -4 21 -8 0 -4 14 -13 30 -19 26 -10 30 -16 28
-44 -2 -24 2 -34 13 -37 27 -5 32 29 9 53 -12 13 -17 26 -12 29 5 3 15 -1 22
-9 7 -8 27 -15 44 -16 17 0 24 -3 16 -6 -8 -2 -21 -7 -29 -9 -11 -3 -9 -10 9
-29 13 -13 26 -22 31 -20 9 6 19 -22 25 -73 6 -50 36 -98 58 -94 11 2 15 -1
11 -8 -4 -7 1 -13 12 -16 12 -4 24 -22 32 -52 8 -26 17 -51 20 -57 10 -17 31
-79 31 -94 0 -8 -6 -11 -15 -7 -8 3 -15 1 -15 -4 0 -6 9 -10 20 -10 16 0 20
-7 20 -33 0 -17 7 -64 15 -102 10 -50 15 -135 15 -297 0 -124 5 -295 12 -380
18 -223 15 -344 -11 -478 -46 -240 -112 -425 -204 -574 -51 -84 -64 -101 -161
-210 -33 -38 -67 -78 -75 -90 -8 -12 -34 -40 -58 -62 -37 -34 -43 -46 -38 -67
11 -42 35 -53 140 -66 155 -19 201 -30 227 -54 21 -20 22 -28 17 -87 -4 -36
-14 -83 -24 -105 -52 -120 -66 -145 -101 -172 -97 -73 -146 -151 -86 -137 15
4 31 9 37 12 19 11 44 9 49 -5 3 -7 0 -13 -7 -13 -7 0 -34 -18 -61 -40 -26
-22 -45 -40 -41 -40 4 0 2 -6 -4 -13 -6 -8 -9 -16 -6 -19 7 -7 55 3 55 11 0 7
35 54 61 81 22 23 105 196 118 247 6 22 19 51 29 64 14 16 18 34 14 64 -2 25
1 46 7 49 6 4 11 22 11 39 1 18 7 43 15 57 19 33 19 50 0 50 -10 0 -15 10 -15
28 0 16 -7 37 -15 48 -19 25 -19 54 0 54 18 0 69 -25 105 -52 22 -16 31 -17
75 -7 28 6 64 12 81 14 17 1 36 5 42 9 6 3 39 8 74 10 55 4 68 1 100 -21 38
-26 101 -52 129 -53 8 0 26 -11 39 -25 15 -16 52 -34 95 -47 38 -11 87 -29
107 -39 32 -16 57 -19 170 -17 l133 3 49 -32 c27 -18 55 -33 63 -33 7 0 52
-12 100 -26 49 -14 102 -30 118 -34 89 -24 287 -118 367 -175 26 -19 51 -35
56 -35 4 0 21 -14 39 -30 18 -17 36 -30 41 -30 5 0 45 -37 89 -82 227 -236
302 -338 428 -588 63 -125 106 -196 201 -335 64 -94 78 -134 104 -300 6 -38
13 -83 16 -100 3 -16 11 -108 19 -203 l13 -174 32 -31 32 -31 -34 -29 c-53
-47 -87 -59 -178 -67 -136 -11 -379 -12 -460 0 -41 6 -149 12 -240 14 -165 4
-243 11 -260 21 -10 6 -115 -47 -145 -74 -27 -25 -103 -48 -143 -44 -18 1 -57
14 -87 28 -30 13 -60 22 -68 20 -7 -3 -20 0 -30 7 -18 14 -47 110 -47 158 0
17 -5 30 -10 30 -7 0 -8 -13 -3 -37 4 -21 7 -85 7 -143 0 -98 -2 -108 -27
-144 -15 -21 -27 -45 -27 -53 0 -11 -7 -13 -26 -9 -23 6 -25 4 -24 -21 3 -42
2 -45 -21 -33 -17 10 -20 9 -18 -7 1 -10 -4 -34 -13 -53 -15 -35 -97 -145
-137 -186 -12 -12 -31 -48 -42 -80 l-20 -57 41 -41 c23 -22 51 -45 62 -51 26
-12 33 -26 48 -93 10 -45 10 -58 -5 -87 -9 -20 -14 -39 -11 -44 3 -4 -3 -16
-14 -26 -10 -9 -16 -23 -14 -30 7 -17 -47 -115 -63 -115 -7 0 -13 -7 -13 -15
0 -8 -11 -17 -25 -21 -21 -5 -25 -12 -25 -45 0 -21 5 -39 10 -39 22 0 9 -41
-16 -50 -14 -6 -22 -15 -19 -20 4 -6 1 -17 -5 -25 -7 -8 -9 -15 -5 -15 5 0 0
-9 -10 -20 -10 -11 -25 -19 -33 -18 -9 2 -18 -6 -21 -17 -12 -42 -27 -56 -66
-59 -27 -2 -45 -11 -61 -29 -24 -28 -44 -35 -44 -15 0 9 -3 9 -11 1 -19 -19
-1 -33 29 -23 15 5 46 11 70 13 l43 5 -2 -56 c-2 -39 4 -77 19 -120 12 -34 22
-71 22 -81 0 -23 26 -88 40 -96 5 -3 14 -24 21 -47 6 -23 21 -55 34 -72 24
-31 77 -160 91 -219 15 -63 -8 -134 -56 -177 -17 -15 -30 -31 -30 -37 0 -5
-11 -15 -25 -21 -14 -7 -28 -19 -31 -27 -4 -8 -16 -15 -29 -15 -30 0 -59 -33
-50 -58 6 -21 -6 -34 -35 -38 -49 -8 -148 -37 -167 -50 -31 -19 -32 -85 -3
-114 11 -11 24 -20 29 -20 21 0 34 -62 27 -130 l-6 -70 1340 0 1340 0 0 5400
0 5400 -3188 0 c-2425 0 -3191 -3 -3200 -12 -9 -9 -18 -9 -37 0 -19 9 -303 12
-1115 12 l-1090 0 0 -2102z m4691 1912 c23 -13 25 -47 2 -72 -9 -10 -46 -27
-83 -38 -39 -12 -76 -30 -90 -45 -44 -47 -159 -57 -231 -19 -15 7 -37 14 -48
14 -41 0 -55 -74 -21 -105 24 -22 25 -31 3 -39 -11 -5 -24 2 -39 21 -19 22
-23 40 -22 84 0 30 -5 65 -11 77 -9 18 -9 23 1 26 7 2 42 11 78 21 36 9 81 19
100 22 19 3 40 9 45 13 6 5 51 13 100 19 50 7 106 16 125 20 49 12 68 13 91 1z
m2489 -31 c45 -25 70 -73 70 -134 0 -39 -3 -45 -25 -51 -41 -10 -67 2 -128 62
-57 56 -63 57 -59 2 2 -20 66 -122 99 -158 39 -42 28 -80 -27 -93 -42 -11 -63
2 -108 63 -24 32 -67 74 -97 95 -68 45 -80 76 -41 111 37 35 102 57 128 43 30
-16 64 -3 78 31 22 53 52 61 110 29z m-175 -437 c47 -16 57 -27 45 -53 -24
-51 -127 -81 -219 -63 -28 6 -31 10 -31 44 0 33 4 39 38 53 20 9 44 18 52 21
21 6 91 5 115 -2z m-1275 -989 c29 -17 70 -79 70 -106 0 -20 -26 -25 -70 -15
-67 17 -110 41 -116 65 -4 13 -11 20 -18 16 -6 -3 -2 3 8 15 16 19 58 38 89
41 5 1 22 -6 37 -16z m1292 -428 c31 -19 58 -42 62 -50 7 -20 -18 -42 -65 -57
-36 -10 -45 -9 -77 8 -20 10 -39 22 -42 25 -3 3 -15 11 -27 18 -52 27 -12 89
57 90 24 1 54 -11 92 -34z m624 -227 c36 -27 84 -79 84 -90 0 -4 7 -8 15 -8 8
0 15 -7 15 -16 0 -29 43 -64 78 -64 18 0 40 -4 50 -9 9 -6 46 -24 82 -41 36
-18 72 -38 80 -45 8 -8 36 -19 63 -25 141 -36 190 -140 65 -140 -57 0 -118
-29 -152 -72 -19 -25 -29 -30 -50 -24 -35 9 -48 36 -34 73 13 35 4 78 -20 98
-103 85 -132 105 -148 105 -10 0 -40 -20 -66 -43 -130 -118 -144 -125 -205
-118 -6 1 -14 -3 -18 -9 -3 -5 -15 -10 -27 -10 -18 0 -20 4 -14 33 4 17 10 70
12 117 4 55 13 97 25 122 13 26 18 49 14 71 -7 42 12 75 55 98 45 24 61 24 96
-3z m-5166 -566 c26 -27 40 -62 56 -139 5 -27 1 -36 -22 -58 l-29 -27 -16 39
c-44 106 -58 213 -28 213 6 0 23 -13 39 -28z m4511 -403 c26 -49 -49 -189
-101 -189 -14 0 -20 10 -26 45 -12 85 14 148 66 158 45 8 49 7 61 -14z m1003
-1156 c28 -28 42 -79 31 -113 -6 -20 -4 -21 32 -18 32 2 38 0 38 -16 0 -10 -9
-24 -20 -30 -11 -6 -32 -21 -48 -33 -15 -12 -45 -28 -67 -34 -33 -10 -43 -9
-64 4 -44 29 -55 67 -45 149 5 40 12 81 15 91 13 41 88 41 128 0z m-1462 -224
c12 -6 36 -25 55 -42 40 -36 46 -92 13 -122 -10 -9 -24 -33 -30 -51 -11 -33
-24 -42 -34 -25 -8 13 -53 19 -68 10 -10 -7 -10 -11 0 -21 6 -6 12 -29 12 -49
0 -33 4 -39 40 -57 l40 -19 6 21 c4 11 7 37 7 57 0 36 0 37 46 42 25 2 83 2
129 -2 84 -6 102 -15 102 -52 0 -59 -143 -110 -222 -80 -13 5 -33 5 -45 0 -20
-7 -22 -13 -17 -52 14 -104 -109 -148 -177 -63 -10 12 -23 47 -30 79 -9 43
-20 64 -41 82 -16 14 -33 25 -38 25 -10 0 -40 57 -40 74 1 20 45 44 96 52 27
4 52 7 57 6 4 -1 7 7 7 18 0 11 5 20 10 20 6 0 10 7 10 15 0 31 69 145 87 145
3 0 14 -5 25 -11z m981 -161 c37 -19 10 -88 -35 -88 -12 0 -24 -10 -30 -28
-13 -34 -71 -74 -101 -70 -38 5 -44 58 -15 120 38 79 106 104 181 66z m439
-666 c41 -64 48 -81 48 -114 0 -26 7 -37 35 -55 34 -22 40 -52 17 -75 -17 -17
-117 -37 -209 -42 -51 -3 -122 -12 -158 -21 -37 -8 -85 -15 -107 -15 -40 0
-40 0 -34 32 3 18 10 36 14 40 4 4 41 12 81 18 41 6 79 14 85 19 6 4 30 11 54
15 97 15 142 28 142 42 0 8 -10 14 -25 14 -14 0 -25 5 -25 10 0 6 -6 10 -13
10 -20 0 -49 90 -41 127 6 29 10 32 48 35 56 4 61 2 88 -40z m29 -2654 c28 -9
42 -20 46 -36 4 -18 8 -21 14 -10 13 20 12 -18 -1 -43 -9 -16 -7 -19 15 -19
22 0 25 -4 25 -36 0 -27 -5 -37 -20 -41 -16 -4 -20 -14 -20 -44 0 -29 -4 -39
-16 -39 -12 0 -15 -8 -13 -34 2 -19 0 -38 -4 -42 -4 -4 -7 -14 -7 -23 0 -27
-70 -65 -113 -62 -84 5 -174 91 -147 140 5 10 13 44 16 75 4 30 11 54 17 53 6
-1 13 7 15 18 2 11 10 27 17 35 6 8 18 30 26 48 8 17 18 32 22 32 5 0 20 9 34
20 30 23 40 24 94 8z m355 -412 c11 -8 26 -33 33 -55 6 -23 15 -41 20 -41 4 0
17 -18 30 -40 21 -38 41 -52 41 -30 0 6 3 10 8 10 4 0 7 -21 7 -47 -1 -37 -5
-49 -18 -51 -9 -2 -17 -10 -17 -18 0 -17 -18 -50 -43 -78 -9 -11 -26 -39 -38
-62 -11 -25 -30 -46 -42 -50 -12 -3 -33 -17 -47 -29 -29 -27 -104 -44 -205
-46 -91 -3 -108 4 -128 46 -21 43 -24 204 -5 223 9 9 9 12 1 12 -7 0 5 25 26
56 45 67 104 104 166 104 37 0 49 6 83 40 21 22 46 40 54 40 9 0 21 7 28 15
15 19 20 19 46 1z m-1330 -1218 c43 -34 63 -55 84 -91 36 -59 39 -74 30 -130
-20 -126 -68 -182 -186 -217 -89 -26 -131 -23 -209 15 -50 24 -54 29 -64 76
-15 70 -14 90 10 153 22 61 92 142 149 172 92 50 143 55 186 22z"/>
<path d="M4026 7445 c-10 -8 -24 -11 -30 -8 -6 4 -5 0 2 -9 7 -9 41 -27 75
-41 96 -39 230 -87 252 -91 11 -2 34 -8 50 -12 17 -4 38 -7 47 -5 10 1 26 -3
38 -9 13 -7 20 -7 20 0 0 5 9 10 20 10 11 0 20 5 20 10 0 19 -30 70 -41 70 -5
0 -22 9 -37 19 -29 21 -156 52 -232 57 -25 1 -58 7 -73 13 -39 15 -88 13 -111
-4z"/>
<path d="M5177 7454 c-4 -4 -24 -9 -45 -10 -99 -8 -164 -35 -200 -84 -12 -16
-22 -31 -22 -33 0 -10 101 7 170 29 94 30 142 59 138 82 -3 18 -29 28 -41 16z"/>
<path d="M5045 7280 c-3 -5 -3 -10 1 -10 17 0 -33 -29 -51 -30 -37 -2 -79 -35
-90 -71 -5 -19 -14 -40 -18 -47 -5 -8 -4 -11 4 -10 7 2 15 -6 18 -17 14 -48
28 -59 73 -58 23 1 79 2 123 2 79 0 81 0 80 23 -1 13 -4 28 -7 34 -4 5 5 20
18 33 19 19 31 22 58 17 49 -9 64 -30 40 -59 -11 -12 -23 -25 -27 -28 -5 -3 1
-9 13 -12 28 -7 58 11 62 38 2 11 11 21 21 23 27 5 58 39 68 75 14 50 12 58
-16 51 -17 -4 -27 -1 -31 9 -5 14 -28 16 -159 14 -85 -1 -148 1 -142 5 9 5 8
8 -3 8 -13 0 -13 1 0 10 12 8 11 10 -7 10 -12 0 -25 -4 -28 -10z"/>
<path d="M4228 6229 c-21 -12 -26 -74 -5 -66 8 3 13 -6 14 -26 3 -35 37 -63
70 -59 13 2 24 0 24 -5 1 -4 3 -18 4 -31 3 -28 25 -49 90 -86 85 -47 128 -58
179 -45 55 14 52 28 -15 58 -27 13 -47 27 -43 32 3 5 1 9 -5 9 -6 0 -19 10
-31 22 -11 12 -23 19 -26 15 -4 -3 -19 2 -33 12 -14 10 -33 21 -41 25 -8 3 14
3 50 -1 36 -3 97 -8 135 -9 39 -2 93 -7 120 -13 38 -7 68 -6 125 6 97 21 110
32 23 21 -77 -11 -117 2 -107 34 6 19 -5 22 -43 12 -13 -4 -23 -13 -23 -21 0
-11 -5 -13 -17 -8 -10 4 -26 7 -36 7 -15 -1 -16 2 -6 14 11 14 8 15 -24 9 -27
-5 -40 -3 -52 9 -14 14 -13 16 12 21 15 4 40 13 55 21 30 16 74 19 83 4 7 -12
25 -4 25 11 0 23 -47 26 -115 6 -38 -11 -104 -23 -145 -27 -41 -5 -99 -12
-129 -16 -52 -7 -54 -6 -49 14 6 23 -16 62 -35 62 -7 0 -20 -5 -29 -11z"/>
<path d="M3679 1593 c-233 -111 -452 -221 -532 -267 -51 -29 -117 -66 -147
-81 -29 -15 -65 -35 -80 -45 -14 -10 -68 -44 -120 -76 -52 -32 -98 -62 -101
-66 -3 -4 5 -86 17 -181 23 -169 70 -548 80 -637 8 -80 15 -103 27 -91 13 13
47 -4 47 -24 0 -18 45 -21 56 -4 3 6 16 8 29 5 12 -3 46 1 76 9 77 22 101 24
120 12 14 -9 30 -6 71 11 29 12 60 22 69 22 8 0 42 7 74 16 95 25 135 27 136
6 0 -13 2 -14 6 -2 11 26 31 42 36 27 4 -9 6 -8 6 2 1 11 4 11 18 0 15 -12 16
-12 10 4 -4 12 -1 17 10 17 9 0 30 4 47 10 17 5 57 15 88 21 32 6 64 17 72 25
8 8 19 14 24 14 15 0 43 48 32 55 -6 3 -10 15 -10 25 0 13 -18 29 -52 49 -29
16 -60 37 -69 45 -9 9 -21 16 -27 16 -6 0 -24 11 -39 25 -16 14 -43 36 -62 48
-19 12 -46 30 -60 39 -14 9 -41 17 -58 17 -18 1 -33 5 -33 10 0 9 -57 71 -65
71 -2 0 -15 10 -28 23 -49 45 -110 217 -77 217 6 0 10 4 10 9 0 12 59 71 71
71 5 0 9 6 9 13 0 7 13 20 29 30 15 9 34 31 42 49 7 18 28 56 46 85 18 29 33
56 33 61 0 12 69 82 80 82 6 0 10 9 10 20 0 11 4 20 9 20 5 0 12 9 16 20 3 10
24 27 46 36 21 10 39 21 39 24 0 4 21 17 46 29 34 17 54 21 82 17 49 -9 92
-26 121 -48 31 -23 41 -23 41 2 0 27 6 25 42 -10 16 -16 27 -30 24 -30 -3 0 6
-12 20 -26 16 -15 24 -32 21 -44 -3 -13 0 -17 9 -13 7 3 16 21 19 41 3 21 12
58 19 84 l14 48 -53 15 c-29 9 -75 20 -102 25 -70 13 -235 49 -248 54 -6 2
-45 -12 -86 -31z"/>
<path d="M1057 1393 c-2 -4 -8 -30 -12 -58 -10 -70 -60 -173 -115 -237 -56
-66 -109 -144 -140 -206 -56 -113 -151 -196 -230 -202 -62 -5 -91 3 -160 45
-118 71 -154 62 -220 -56 -25 -44 -75 -129 -112 -189 l-68 -108 0 -191 0 -191
1096 0 1097 0 -7 73 c-4 39 -11 91 -16 113 -5 23 -13 92 -16 154 -6 98 -10
113 -26 118 -20 5 -24 18 -7 24 6 2 14 36 19 76 8 72 24 101 56 102 21 0 36
30 51 97 20 90 20 95 5 100 -7 3 -18 -10 -26 -29 -15 -34 -69 -115 -90 -133
-6 -5 -35 -39 -65 -75 -75 -91 -130 -150 -140 -150 -4 0 -26 -14 -47 -31 -49
-39 -127 -79 -154 -79 -38 0 -120 38 -187 88 -38 27 -91 63 -119 80 -28 16
-61 38 -74 48 -33 28 -66 109 -100 247 -41 163 -117 429 -142 497 -22 58 -42
88 -51 73z"/>
<path d="M4413 1098 c18 -9 18 -11 1 -29 -20 -23 -38 -25 -30 -4 6 17 -19 21
-29 5 -3 -5 -1 -10 4 -10 25 0 8 -19 -32 -34 -53 -20 -66 -20 -88 0 -32 29
-40 6 -15 -44 12 -26 40 -89 61 -139 35 -87 41 -94 84 -116 25 -13 90 -47 144
-76 53 -29 97 -49 97 -44 0 6 -18 26 -41 46 -25 23 -35 37 -25 37 9 0 16 5 16
10 0 6 -5 10 -11 10 -5 0 -8 4 -5 8 9 16 -14 81 -40 112 l-26 30 17 51 c23 67
36 82 112 121 34 17 60 34 57 37 -3 3 -35 4 -70 2 -44 -2 -72 2 -87 12 -12 7
-42 17 -67 20 -34 4 -40 3 -27 -5z"/>
</g>
</svg>
